<?xml version="1.0" standalone="no"?>
<!DOCTYPE svg PUBLIC "-//W3C//DTD SVG 20010904//EN"
 "http://www.w3.org/TR/2001/REC-SVG-20010904/DTD/svg10.dtd">
<svg version="1.0" xmlns="http://www.w3.org/2000/svg"
 width="1024.000000pt" height="1024.000000pt" viewBox="0 0 1024.000000 1024.000000"
 preserveAspectRatio="xMidYMid meet">

<g transform="translate(0.000000,1024.000000) scale(0.100000,-0.100000)"
fill="#000000" stroke="none">
<path d="M6380 7374 c-474 -98 -883 -347 -1189 -723 l-76 -94 -3 -392 -3 -392
-87 13 c-185 29 -349 80 -496 156 -346 176 -614 514 -721 910 -30 109 -54 302
-57 443 l-1 100 -7 -110 c-4 -60 -8 -511 -9 -1001 l-1 -892 98 -11 c465 -57
922 -263 1209 -545 l83 -81 72 72 c285 279 730 482 1188 543 47 6 95 13 108
16 l22 4 0 1000 c0 549 -3 1001 -7 1003 -5 3 -60 -6 -123 -19z"/>
<path d="M4088 7293 c7 -3 16 -2 19 1 4 3 -2 6 -13 5 -11 0 -14 -3 -6 -6z"/>
<path d="M4410 7140 c0 -5 5 -10 11 -10 5 0 7 5 4 10 -3 6 -8 10 -11 10 -2 0
-4 -4 -4 -10z"/>
<path d="M3382 6028 l3 -1023 145 -6 c445 -19 995 -145 1291 -295 l54 -27 -25
-16 c-57 -37 -91 -77 -122 -139 -31 -63 -33 -72 -33 -179 l0 -112 72 -143 c43
-84 75 -162 79 -189 8 -56 -14 -146 -56 -228 -16 -33 -30 -63 -30 -66 0 -3
116 -4 258 -3 l257 3 7 66 c3 37 13 80 22 97 15 29 17 30 102 33 77 4 88 7
106 29 15 19 18 33 14 62 -4 26 -1 46 9 61 8 13 12 27 9 30 -4 4 -1 14 6 22
10 12 10 21 1 42 -12 25 -3 42 21 43 12 0 38 31 38 45 0 7 -21 39 -47 71 l-48
59 0 90 c0 123 -23 182 -96 257 l-57 57 42 25 c49 29 206 92 321 129 276 90
652 154 1008 172 l127 7 0 1024 0 1024 -120 0 -120 0 0 -884 0 -885 -47 -6
c-27 -3 -121 -17 -209 -30 -420 -65 -803 -237 -1040 -465 l-67 -65 -136 4
-135 3 -71 65 c-38 36 -121 98 -183 140 -288 191 -631 303 -1064 348 l-58 6 0
885 0 884 -115 0 -115 0 2 -1022z"/>
<path d="M7180 3510 c-27 -27 -26 -65 2 -84 32 -23 65 -20 83 8 40 61 -34 127
-85 76z"/>
<path d="M4523 3494 c-9 -4 -13 -33 -13 -95 l0 -88 -47 25 c-39 21 -57 24 -93
20 -92 -13 -155 -88 -154 -186 1 -85 40 -142 116 -175 51 -21 77 -19 131 9 44
22 47 22 47 5 0 -16 8 -19 45 -19 l45 0 -2 253 -3 252 -30 2 c-16 1 -36 0 -42
-3z m-50 -248 c47 -43 48 -106 2 -152 -50 -50 -147 -20 -161 51 -7 39 0 64 27
99 28 36 95 37 132 2z"/>
<path d="M6373 3493 l-23 -4 0 -250 0 -249 45 0 c42 0 45 2 45 26 l0 26 31
-26 c54 -45 142 -39 204 15 88 78 76 239 -22 300 -51 31 -127 32 -170 1 -17
-12 -33 -22 -35 -22 -1 0 -2 40 0 89 3 85 3 89 -20 95 -13 3 -25 5 -28 5 -3
-1 -15 -4 -27 -6z m222 -229 c23 -9 45 -57 45 -98 0 -23 -9 -45 -26 -65 -21
-26 -33 -31 -67 -31 -51 1 -72 15 -92 64 -19 45 -7 97 28 121 22 15 82 20 112
9z"/>
<path d="M7390 3396 c0 -41 -2 -45 -27 -48 -16 -2 -27 -6 -25 -10 1 -5 2 -21
2 -38 0 -25 4 -30 25 -30 25 0 25 -1 26 -87 0 -110 14 -151 58 -177 35 -20
125 -27 141 -10 4 5 6 24 3 43 -5 31 -7 33 -39 28 -54 -9 -64 9 -64 116 l0 92
47 0 48 0 0 35 c0 35 0 35 -47 38 l-48 3 0 45 0 44 -50 0 -50 0 0 -44z"/>
<path d="M2211 3340 c-34 -16 -42 -24 -36 -37 4 -10 10 -26 12 -35 6 -21 20
-22 53 -3 41 23 97 19 126 -10 39 -39 27 -49 -62 -55 -90 -7 -117 -18 -139
-60 -19 -36 -19 -63 0 -99 27 -54 141 -72 196 -32 26 20 48 14 34 -9 -4 -6 14
-10 45 -10 l52 0 -4 133 c-3 146 -14 179 -71 212 -47 28 -152 31 -206 5z m179
-205 c0 -67 -92 -112 -134 -66 -38 42 6 78 97 80 26 1 37 -3 37 -14z"/>
<path d="M2733 3335 c-42 -25 -43 -25 -43 -6 0 18 -6 21 -45 21 l-45 0 0 -245
0 -245 45 0 45 0 0 92 0 91 24 -22 c101 -95 276 6 276 160 0 41 -48 126 -85
149 -18 11 -55 23 -82 26 -40 4 -55 1 -90 -21z m93 -70 c68 -28 81 -138 21
-180 -63 -44 -157 5 -157 83 0 43 28 88 64 102 29 12 32 12 72 -5z"/>
<path d="M3225 3346 c-17 -7 -39 -21 -48 -30 -16 -16 -17 -16 -17 8 0 24 -3
26 -45 26 l-45 0 0 -180 0 -180 45 0 45 0 0 100 c0 69 5 110 15 129 14 28 58
51 96 51 16 0 19 8 19 45 0 50 -10 55 -65 31z"/>
<path d="M3447 3346 c-77 -28 -117 -90 -117 -177 0 -70 35 -131 93 -161 73
-38 194 -25 235 25 9 11 7 19 -13 37 -21 20 -28 22 -50 12 -33 -15 -97 -15
-128 -1 -14 6 -30 22 -36 35 l-11 24 142 0 141 0 -5 43 c-11 100 -72 163 -164
172 -30 3 -64 0 -87 -9z m128 -91 c46 -46 35 -55 -65 -55 -58 0 -90 4 -90 11
0 6 13 24 29 40 38 38 91 40 126 4z"/>
<path d="M3917 3335 c-26 -13 -46 -21 -46 -17 4 26 -4 32 -46 32 l-45 0 0
-181 0 -180 48 3 47 3 3 117 c3 113 4 118 29 138 33 26 83 26 111 0 20 -19 22
-30 22 -140 l0 -120 45 0 45 0 0 130 c0 161 -10 192 -72 220 -57 26 -86 25
-141 -5z"/>
<path d="M4795 3343 c-75 -39 -105 -88 -105 -169 0 -113 75 -186 190 -188 96
-1 172 55 125 94 -13 10 -25 10 -70 -5 -44 -13 -61 -15 -89 -5 -29 9 -66 46
-66 64 0 3 62 7 138 8 l137 3 -2 43 c-3 64 -39 123 -93 150 -52 26 -121 28
-165 5z m142 -85 c47 -53 41 -58 -62 -58 -52 0 -95 4 -95 9 0 5 12 23 26 40
21 26 33 31 68 31 31 0 48 -6 63 -22z"/>
<path d="M6040 3351 c-93 -29 -135 -83 -135 -177 0 -75 34 -133 96 -165 52
-26 135 -28 189 -4 49 22 55 37 25 65 -21 20 -28 21 -56 11 -55 -19 -107 -14
-134 14 -14 13 -25 29 -25 35 0 6 48 10 136 10 l136 0 -4 54 c-9 114 -120 190
-228 157z m114 -102 c14 -17 26 -35 26 -40 0 -5 -40 -9 -90 -9 -94 0 -106 7
-77 42 38 48 104 51 141 7z"/>
<path d="M6863 3341 c-45 -21 -73 -62 -73 -106 0 -44 46 -80 124 -98 83 -19
106 -36 81 -61 -20 -20 -76 -21 -139 -2 l-46 14 -15 -28 c-8 -16 -15 -31 -15
-33 0 -14 93 -39 146 -39 81 0 133 24 157 74 16 33 17 40 3 73 -17 39 -53 59
-132 74 -58 11 -77 27 -63 53 9 17 18 19 67 15 31 -2 67 -7 78 -11 18 -6 23
-2 33 25 13 37 8 43 -49 59 -53 15 -110 12 -157 -9z"/>
<path d="M7765 3348 c-100 -37 -151 -147 -114 -245 15 -41 67 -91 108 -104 75
-25 174 -9 209 34 10 11 8 19 -7 38 -18 22 -22 23 -53 11 -53 -19 -111 -15
-142 9 -52 41 -37 48 107 51 l132 3 -1 46 c-4 93 -67 160 -157 165 -29 2 -65
-2 -82 -8z m129 -99 c14 -17 26 -35 26 -40 0 -5 -42 -9 -94 -9 -90 0 -94 1
-89 20 9 32 52 60 93 60 30 0 44 -6 64 -31z"/>
<path d="M5265 3333 c4 -10 33 -90 65 -178 l57 -160 48 0 47 0 40 110 c22 61
43 113 47 118 4 4 24 -47 45 -113 l38 -120 48 0 c47 0 48 1 63 43 37 98 107
300 107 309 0 5 -19 8 -42 6 l-41 -3 -43 -125 c-24 -73 -44 -119 -48 -110 -3
8 -23 65 -44 125 l-37 110 -45 0 -44 0 -39 -117 c-21 -65 -43 -118 -47 -118
-5 0 -26 53 -47 118 l-40 117 -48 3 c-43 3 -47 1 -40 -15z"/>
<path d="M7170 3169 l0 -180 48 3 47 3 3 178 3 177 -51 0 -50 0 0 -181z"/>
<path d="M5137 3092 c-10 -10 -17 -30 -17 -44 0 -55 76 -79 106 -33 38 59 -42
129 -89 77z"/>
</g>
</svg>
